<svg width="53" height="53" viewBox="0 0 53 53" fill="none" xmlns="http://www.w3.org/2000/svg">
<g clip-path="url(#clip0_12_125)">
<path d="M48.8897 34.1776L48.8677 32.5172C49.8213 32.5047 51.1728 31.6191 51.1712 30.8087V15.3522C51.1703 14.2723 50.3538 13.0173 49.4573 12.7204C45.2186 11.3486 40.7314 11.3482 36.4856 12.7221C35.5949 13.0169 34.778 14.2715 34.7772 15.3526V30.8067H33.1168V15.3522C33.118 13.5519 34.3975 11.6646 35.9693 11.1441C40.5534 9.6605 45.3946 9.6605 49.9741 11.1424C51.5513 11.665 52.8299 13.5527 52.8311 15.3518V30.8067C52.8365 32.8012 50.4623 34.1569 48.8897 34.1776ZM16.9766 34.1676L16.4321 32.5987L20.2887 31.2592L16.2905 18.6564L17.8731 18.1542L22.3599 32.2969L16.9766 34.1676ZM27.0404 34.3403C24.9974 34.3403 23.335 32.6683 23.335 30.6129C23.335 28.5579 24.9974 26.8859 27.0404 26.8859C29.0834 26.8859 30.7454 28.5579 30.7454 30.6129C30.7454 32.6679 29.083 34.3403 27.0404 34.3403ZM27.0404 28.5459C25.9125 28.5459 24.9954 29.4726 24.9954 30.6125C24.9954 31.7524 25.9129 32.6795 27.0404 32.6795C28.1679 32.6795 29.0851 31.7524 29.0851 30.6125C29.0851 29.4726 28.1679 28.5459 27.0404 28.5459ZM31.5736 46.0007H22.0004V35.6893H31.5736V46.0007ZM23.6608 44.3407H29.914V37.3497H23.6608V44.3407Z" fill="#121212"/>
<path d="M20.1069 31.6307L23.4459 36.0181L22.1242 37.0238L18.7861 32.6364L20.1069 31.6307ZM33.4695 31.6282L34.7912 32.6335L31.4531 37.0222L30.1314 36.0168L33.4695 31.6282ZM23.6836 45.0016H25.344V52.2949H23.6836V45.0016ZM28.23 45.0016H29.8904V52.2949H28.23V45.0016ZM12.9271 53H7.1948L6.24121 44.0517L7.89208 43.8757L8.68749 51.3396H11.4348L12.2315 43.8757L13.8819 44.0517L12.9271 53ZM42.1442 35.6595H43.8045V52.1711H42.1442V35.6595Z" fill="#121212"/>
<path d="M49.0586 51.9831H36.8901V17.726H38.5505V50.3227H47.3986V17.726H49.0586V51.9831Z" fill="#121212"/>
<path d="M42.144 35.6595H43.8044V52.171H42.144V35.6595ZM2.39653 32.6004C2.06942 31.5002 1.70629 30.2916 1.34232 29.0804C0.961801 27.8138 0.580449 26.5447 0.238848 25.394L0.168457 25.1576L2.24457 18.1686C2.69755 16.7194 3.965 14.8093 5.22913 14.2305C7.00918 13.4504 8.53997 13.0889 10.0592 13.0877C11.5837 13.0889 13.1137 13.4504 14.8805 14.2251C16.1571 14.8081 17.4249 16.7186 17.8742 18.1579L16.2892 18.6527C15.8941 17.3869 14.8242 16.0242 14.2019 15.7402C12.664 15.0657 11.3452 14.7485 10.0629 14.7477C8.77764 14.7485 7.45844 15.0661 5.90778 15.7455C5.29786 16.0246 4.22751 17.3877 3.83208 18.6527L1.89965 25.1576C2.22262 26.2429 2.57747 27.4238 2.9315 28.6022C3.29587 29.8154 3.65942 31.0257 3.98694 32.1271L2.39653 32.6004Z" fill="#121212"/>
<path d="M19.5041 42.2236H0.619141L5.30219 19.0879L6.92945 19.417L2.64887 40.5636H17.4744L13.1946 19.4166L14.8219 19.0875L19.5041 42.2236ZM42.9752 11.6103C39.7948 11.6103 37.2074 9.00586 37.2074 5.80474C37.2074 2.60404 39.7948 0 42.9752 0C46.1552 0 48.7423 2.60404 48.7423 5.80474C48.7423 9.00586 46.1552 11.6103 42.9752 11.6103ZM42.9752 1.65998C40.7103 1.65998 38.8677 3.51912 38.8677 5.80433C38.8677 8.09037 40.7103 9.94992 42.9752 9.94992C45.2398 9.94992 47.0823 8.08995 47.0823 5.80433C47.0823 3.51953 45.2398 1.65998 42.9752 1.65998Z" fill="#121212"/>
<path d="M10.0629 14.409C7.02163 14.409 4.54761 11.9188 4.54761 8.85805C4.54761 5.79771 7.02204 3.30795 10.0629 3.30795C13.103 3.30795 15.5762 5.79771 15.5762 8.85805C15.5766 11.9192 13.103 14.409 10.0629 14.409ZM10.0629 4.96834C7.93712 4.96834 6.20758 6.7132 6.20758 8.85846C6.20758 11.0041 7.93712 12.7494 10.0629 12.7494C12.1875 12.7494 13.9162 11.0041 13.9162 8.85846C13.9162 6.7132 12.1879 4.96834 10.0629 4.96834Z" fill="#121212"/>
</g>
<defs>
<clipPath id="clip0_12_125">
<rect width="53" height="53" fill="white"/>
</clipPath>
</defs>
</svg>
